<svg width="102" height="56" viewBox="0 0 102 56" fill="none" xmlns="http://www.w3.org/2000/svg">
<g clip-path="url(#clip0_122_133)">
<path d="M0.2453 45.246V36.9798H3.21814C3.99343 36.9798 4.6182 37.168 5.09217 37.5445C5.56614 37.9207 5.80293 38.4427 5.80293 39.1102C5.80293 39.4984 5.71304 39.8476 5.53276 40.1582C5.35275 40.4686 5.10593 40.7092 4.79244 40.88V40.9033C5.23114 41.0275 5.56614 41.2721 5.79717 41.6367C6.02827 42.0015 6.14377 42.4053 6.14377 42.8476C6.14377 43.6317 5.8697 44.2273 5.32126 44.6349C4.7729 45.0422 4.0875 45.246 3.26499 45.246H0.2453ZM1.76091 40.356H3.22974C3.55088 40.356 3.80376 40.2572 3.98767 40.0593C4.17177 39.8612 4.2639 39.6072 4.2639 39.2965C4.2639 38.9938 4.17177 38.7474 3.98767 38.5572C3.80376 38.3672 3.54325 38.272 3.20632 38.272H1.76091V40.356ZM1.76091 43.9539H3.38243C3.75851 43.9539 4.05434 43.8432 4.26974 43.6219C4.48506 43.4006 4.59281 43.1116 4.59281 42.7544C4.59281 42.4053 4.48506 42.1201 4.26974 41.8987C4.05434 41.6775 3.75851 41.5669 3.38243 41.5669H1.76091V43.9539ZM10.5372 45.246V36.9798H13.2866C13.9917 36.9798 14.5166 37.0535 14.8613 37.2008C15.3 37.3794 15.6446 37.6627 15.8952 38.0507C16.1459 38.4389 16.2713 38.9086 16.2713 39.4596C16.2713 39.9642 16.1459 40.424 15.8952 40.8393C15.6446 41.2546 15.3038 41.5474 14.8729 41.7182V41.7417C14.9435 41.827 15.0336 41.9706 15.1431 42.1722L16.8586 45.246H15.1549L13.51 42.1608H12.0529V45.246H10.5372ZM12.0529 40.8568H13.416C13.8232 40.8568 14.1444 40.7385 14.3794 40.5016C14.6145 40.2648 14.732 39.9449 14.732 39.5411C14.732 38.9667 14.5125 38.5904 14.0739 38.4117C13.8625 38.3185 13.5569 38.272 13.1574 38.272H12.0529V40.8568ZM19.9948 45.246L22.9205 36.9798H24.5185L27.4442 45.246H25.8932L25.1766 43.1272H22.2507L21.5457 45.246H19.9948ZM22.6268 41.9045H24.8006L24.0603 39.6925L23.7313 38.4117H23.7079C23.5824 38.955 23.4727 39.382 23.3787 39.6925L22.6268 41.9045ZM31.1679 42.2772V36.9798H32.6837V42.2655C32.6837 42.8165 32.8501 43.2454 33.1831 43.5519C33.5159 43.8587 33.9645 44.012 34.5284 44.012C35.0924 44.012 35.5408 43.8587 35.8738 43.5519C36.2066 43.2454 36.3732 42.8165 36.3732 42.2655V36.9798H37.8888V42.2772C37.8888 43.2009 37.5814 43.9498 36.9666 44.5243C36.3516 45.0985 35.5427 45.3857 34.5402 45.3857C33.5297 45.3857 32.715 45.0985 32.0962 44.5243C31.4773 43.9498 31.1679 43.2009 31.1679 42.2772ZM42.6699 45.246V36.9798H44.1855L47.3464 41.7532C47.4404 41.9007 47.5443 42.0813 47.6576 42.2947C47.7713 42.5081 47.8633 42.6846 47.9339 42.8244L48.0396 43.0339H48.0633C48.0084 42.5061 47.9809 42.0791 47.9809 41.7532V36.9798H49.4849V45.246H47.9809L44.8203 40.4842C44.7262 40.3366 44.6223 40.1563 44.5087 39.9427C44.3951 39.7293 44.3033 39.5528 44.2327 39.4129L44.1268 39.2034H44.1033C44.1582 39.7312 44.1855 40.1582 44.1855 40.4842V45.246H42.6699ZM53.8783 41.0546C53.8783 39.8593 54.2836 38.858 55.0945 38.0507C55.9052 37.2437 56.9371 36.8399 58.1906 36.8399C59.4439 36.8399 60.4759 37.2437 61.2866 38.0507C62.0975 38.858 62.5028 39.8593 62.5028 41.0546C62.5028 42.281 62.0975 43.3096 61.2866 44.1399C60.4759 44.9705 59.4439 45.3857 58.1906 45.3857C56.9371 45.3857 55.9052 44.9705 55.0945 44.1399C54.2836 43.3096 53.8783 42.281 53.8783 41.0546ZM55.4411 41.0546C55.4411 41.9007 55.7017 42.605 56.2225 43.1678C56.7433 43.7307 57.3995 44.012 58.1906 44.012C58.9818 44.012 59.6378 43.7307 60.1586 43.1678C60.6797 42.605 60.94 41.9007 60.94 41.0546C60.94 40.2475 60.6797 39.5722 60.1586 39.0287C59.6378 38.4854 58.9818 38.2139 58.1906 38.2139C57.3995 38.2139 56.7433 38.4854 56.2225 39.0287C55.7017 39.5722 55.4411 40.2475 55.4411 41.0546ZM68.7526 45.246L65.7445 36.9798H67.3779L69.2109 42.3703L69.528 43.5812H69.5517C69.6611 43.0922 69.7669 42.6887 69.8688 42.3703L71.7255 36.9798H73.3351L70.3271 45.246H68.7526ZM77.2584 45.246V36.9798H78.774V45.246H77.2584ZM83.1675 41.0778C83.1675 39.867 83.5709 38.858 84.3776 38.0507C85.1844 37.2437 86.2107 36.8399 87.4563 36.8399C88.7252 36.8399 89.7514 37.2164 90.5347 37.9693L89.8062 39.087C89.5008 38.831 89.1423 38.6212 88.731 38.4583C88.3198 38.2953 87.9184 38.2139 87.5267 38.2139C86.6493 38.2139 85.9639 38.4854 85.4703 39.0287C84.977 39.5722 84.7303 40.2475 84.7303 41.0546C84.7303 41.8696 84.9809 42.5662 85.4822 43.1446C85.9835 43.7227 86.6689 44.012 87.5385 44.012C88.4316 44.012 89.2383 43.6626 89.9591 42.964L90.758 44.047C89.8727 44.9395 88.7801 45.3857 87.4798 45.3857C86.1872 45.3857 85.1453 44.9783 84.3542 44.1634C83.5629 43.3484 83.1675 42.3198 83.1675 41.0778ZM94.9163 45.246V36.9798H96.432V40.4842H100.251V36.9798H101.755V45.246H100.251V41.7765H96.432V45.246H94.9163Z" fill="black"/>
<path fill-rule="evenodd" clip-rule="evenodd" d="M56.3876 6.73567C54.061 5.6752 48.7255 5.28133 45.6331 6.7163L45.288 7.10026C45.0108 7.50355 44.7959 7.9661 44.797 8.4628C44.7972 8.59674 44.81 8.7306 44.8348 8.86226C45.0288 9.89142 45.9182 10.6629 46.8041 11.1422C48.0436 11.813 49.5473 12.0954 50.9506 12.0925C52.3539 12.0898 53.8566 11.8015 55.0932 11.1257C55.9772 10.6427 56.8634 9.86773 57.0533 8.83778C57.0775 8.70608 57.0898 8.57207 57.0895 8.43816C57.0885 7.92352 56.9094 7.44534 56.606 7.03267L56.3876 6.73567ZM44.9846 6.86711C43.1416 5.67506 37.1808 4.8819 34.7197 4.71732C29.2681 4.35274 30.1888 1.69184 25.085 0.243158L25.3957 0.392942C28.6154 1.18651 28.5614 3.99622 31.168 5.14591C34.8893 6.78727 41.4702 6.71623 44.6426 10.4917C44.6292 10.6564 44.6227 10.8324 44.6223 11.0169L44.6326 11.0168C44.78 11.0148 44.9275 11.0255 45.0734 11.0468L45.3466 11.0659L45.3562 11.0678C48.2975 11.6513 50.4329 15.8295 50.9735 18.4882C50.9851 18.5455 50.9964 18.6058 51.0074 18.6682C51.0184 18.6058 51.0297 18.5455 51.0413 18.4882C51.582 15.8293 53.7174 11.6513 56.6589 11.0678L56.6685 11.0659L56.9414 11.0469C57.0691 11.0282 57.198 11.0178 57.327 11.0167C57.3287 10.8507 57.326 10.691 57.3182 10.5397C60.4751 6.71597 67.0953 6.7941 70.8321 5.14591C73.4387 3.99622 73.3848 1.18651 76.6044 0.392942L76.9151 0.243158C71.8114 1.69184 72.7321 4.35274 67.2805 4.71732C64.7814 4.88438 58.66 5.59631 56.9185 6.81284C57.2625 7.29413 57.4715 7.84354 57.4728 8.43738C57.473 8.59445 57.4589 8.75153 57.4304 8.906C57.2184 10.0561 56.2693 10.9169 55.2784 11.4583C53.9844 12.1653 52.4202 12.4695 50.9514 12.4724C49.4826 12.4753 47.9171 12.1774 46.6204 11.4756C45.6273 10.9383 44.6748 10.0812 44.458 8.93203C44.4289 8.77758 44.414 8.62065 44.4137 8.46358C44.4125 7.88699 44.6483 7.35515 44.9713 6.88633L44.9846 6.86711ZM44.6269 11.3185C44.6921 13.3764 45.4341 16.3056 46.2085 17.4881C47.5133 19.4802 46.185 21.4752 47.8525 23.8367C48.2134 24.3478 48.6484 24.5008 49.0819 24.4819L49.3997 24.2703C51.7885 22.6706 50.4405 17.676 49.4209 15.5974C48.4299 13.577 46.9906 11.7188 44.6269 11.3185ZM50.0593 24.2112C50.4789 24.0212 50.8262 23.7995 51.0023 23.788C51.1845 23.7999 51.5447 24.0367 51.9779 24.2307C51.4668 23.7905 51.1668 23.0601 51.0075 22.2453C50.8504 23.0484 50.5568 23.7692 50.0593 24.2112ZM52.9405 24.4831C53.3553 24.4906 53.7705 24.3316 54.12 23.8367C55.7875 21.4752 54.4592 19.4802 55.7639 17.4881C56.5212 16.3319 57.233 13.4207 57.3188 11.3309C54.9962 11.7556 53.5754 13.5967 52.594 15.5974C51.574 17.6769 50.2266 22.6692 52.6152 24.2703L52.9405 24.4831Z" fill="black"/>
<path d="M38.1525 55.6843V51.4228H40.569V51.7986H38.5746V53.3504H40.2081V53.7263H38.5746V55.3085H40.6853V55.6843H38.1525ZM41.2482 55.2115L41.499 54.8903C41.6418 55.0276 41.812 55.1398 42.0098 55.2267C42.2076 55.3136 42.4085 55.3569 42.6125 55.3569C42.8694 55.3569 43.0785 55.2903 43.2396 55.1569C43.4007 55.0236 43.4812 54.8478 43.4812 54.6295C43.4812 54.4841 43.4414 54.3557 43.3619 54.2446C43.2824 54.1335 43.1804 54.0405 43.056 53.9658C42.9315 53.891 42.793 53.8202 42.64 53.7535C42.4871 53.6869 42.334 53.6172 42.1811 53.5445C42.0282 53.4717 41.8896 53.3919 41.7651 53.305C41.6408 53.2181 41.5387 53.105 41.4593 52.9655C41.3797 52.8261 41.3399 52.6675 41.3399 52.4896C41.3399 52.1461 41.4684 51.8703 41.7254 51.6622C41.9823 51.454 42.3046 51.35 42.692 51.35C43.1529 51.35 43.5321 51.4874 43.8299 51.7622L43.6219 52.1138C43.5036 52.0047 43.3588 51.9168 43.1876 51.8501C43.0162 51.7834 42.8449 51.7501 42.6736 51.7501C42.4208 51.7501 42.2076 51.8148 42.0343 51.9441C41.861 52.0734 41.7744 52.2471 41.7744 52.4654C41.7744 52.6028 41.8141 52.725 41.8936 52.8321C41.9732 52.9392 42.0751 53.0271 42.1995 53.0958C42.3239 53.1646 42.4626 53.2312 42.6156 53.2959C42.7684 53.3606 42.9214 53.4293 43.0744 53.502C43.2273 53.5747 43.3659 53.6556 43.4903 53.7445C43.6148 53.8335 43.7167 53.9495 43.7963 54.093C43.8758 54.2365 43.9156 54.4012 43.9156 54.5871C43.9156 54.9266 43.7972 55.2064 43.5607 55.4267C43.3242 55.647 43.004 55.7571 42.6002 55.7571C42.0659 55.7571 41.6153 55.5752 41.2482 55.2115ZM45.8733 55.6843V51.7986H44.3316V51.4228H47.8433V51.7986H46.2954V55.6843H45.8733ZM48.0084 55.6843V55.1812H48.51V55.6843H48.0084ZM50.8716 55.6843C50.8553 55.555 50.8471 55.4641 50.8471 55.4116C50.8471 55.2095 50.8879 55.0206 50.9694 54.8448C51.0511 54.669 51.156 54.5174 51.2845 54.3901C51.4129 54.2628 51.5568 54.1416 51.7159 54.0264C51.8749 53.9112 52.0329 53.8011 52.19 53.696C52.347 53.591 52.4898 53.4849 52.6182 53.3777C52.7467 53.2706 52.8517 53.1474 52.9333 53.0079C53.0149 52.8685 53.0556 52.722 53.0556 52.5684C53.0556 52.33 52.9731 52.134 52.8079 51.9805C52.6427 51.8268 52.4275 51.7501 52.1624 51.7501C51.9666 51.7501 51.7841 51.8036 51.6148 51.9107C51.4456 52.0178 51.3059 52.1583 51.1958 52.332L50.8838 52.1199C51.0102 51.8935 51.1887 51.7087 51.4191 51.5652C51.6496 51.4217 51.9055 51.35 52.1869 51.35C52.5826 51.35 52.8997 51.4631 53.1382 51.6894C53.3769 51.9158 53.4961 52.2007 53.4961 52.5442C53.4961 52.7382 53.4564 52.9191 53.3769 53.0868C53.2973 53.2545 53.1933 53.3999 53.0648 53.5232C52.9363 53.6465 52.7946 53.7637 52.6396 53.8749C52.4846 53.986 52.3297 54.093 52.1747 54.1961C52.0197 54.2992 51.8779 54.4043 51.7495 54.5114C51.621 54.6184 51.516 54.7397 51.4343 54.875C51.3529 55.0104 51.3121 55.1549 51.3121 55.3085H53.5634V55.6843H50.8716ZM55.8271 55.7571C55.3051 55.7571 54.9277 55.557 54.6952 55.1569C54.4628 54.7569 54.3466 54.2214 54.3466 53.5505C54.3466 53.2312 54.3721 52.9433 54.423 52.6867C54.474 52.43 54.5556 52.1986 54.6677 51.9926C54.7799 51.7864 54.9339 51.6278 55.1296 51.5167C55.3254 51.4055 55.5579 51.35 55.8271 51.35C56.186 51.35 56.4796 51.451 56.708 51.6531C56.9365 51.8551 57.0945 52.1138 57.1822 52.4291C57.2699 52.7443 57.3137 53.1181 57.3137 53.5505C57.3137 53.8738 57.2882 54.1638 57.2372 54.4204C57.1863 54.677 57.1046 54.9074 56.9925 55.1115C56.8803 55.3156 56.7263 55.4742 56.5306 55.5874C56.3348 55.7005 56.1004 55.7571 55.8271 55.7571ZM55.8271 55.3631C56.0881 55.3631 56.2992 55.2802 56.4602 55.1145C56.6213 54.9488 56.7304 54.7386 56.7876 54.4841C56.8447 54.2295 56.8732 53.9183 56.8732 53.5505C56.8732 53.2838 56.8568 53.0464 56.8243 52.8382C56.7916 52.6301 56.7366 52.4422 56.659 52.2745C56.5816 52.1067 56.4735 51.9774 56.3348 51.8864C56.1961 51.7955 56.0269 51.7501 55.8271 51.7501C55.1337 51.7501 54.787 52.3502 54.787 53.5505C54.787 54.1163 54.8655 54.5599 55.0225 54.8811C55.1796 55.2024 55.4477 55.3631 55.8271 55.3631ZM58.0968 55.6843C58.0804 55.555 58.0724 55.4641 58.0724 55.4116C58.0724 55.2095 58.1131 55.0206 58.1947 54.8448C58.2762 54.669 58.3813 54.5174 58.5098 54.3901C58.6382 54.2628 58.782 54.1416 58.941 54.0264C59.1001 53.9112 59.2582 53.8011 59.4152 53.696C59.5722 53.591 59.715 53.4849 59.8434 53.3777C59.9719 53.2706 60.0769 53.1474 60.1585 53.0079C60.2401 52.8685 60.2809 52.722 60.2809 52.5684C60.2809 52.33 60.1983 52.134 60.0331 51.9805C59.8679 51.8268 59.6527 51.7501 59.3876 51.7501C59.1919 51.7501 59.0093 51.8036 58.8401 51.9107C58.6709 52.0178 58.5312 52.1583 58.4211 52.332L58.109 52.1199C58.2354 51.8935 58.4139 51.7087 58.6444 51.5652C58.8748 51.4217 59.1307 51.35 59.4122 51.35C59.8078 51.35 60.1249 51.4631 60.3634 51.6894C60.602 51.9158 60.7213 52.2007 60.7213 52.5442C60.7213 52.7382 60.6816 52.9191 60.602 53.0868C60.5225 53.2545 60.4186 53.3999 60.29 53.5232C60.1615 53.6465 60.0199 53.7637 59.8648 53.8749C59.7099 53.986 59.5549 54.093 59.3999 54.1961C59.245 54.2992 59.1032 54.4043 58.9747 54.5114C58.8463 54.6184 58.7412 54.7397 58.6596 54.875C58.5781 55.0104 58.5373 55.1549 58.5373 55.3085H60.7887V55.6843H58.0968ZM61.5167 55.6843V55.3085H62.4833V52.1805L62.4894 51.9441H62.4773C62.4487 52.0006 62.3773 52.0855 62.2631 52.1986L61.8042 52.6473L61.535 52.3805L62.5078 51.4228H62.8994V55.3085H63.8476V55.6843H61.5167Z" fill="black"/>
</g>
<defs>
<clipPath id="clip0_122_133">
<rect width="102" height="56" fill="white"/>
</clipPath>
</defs>
</svg>
