<svg width="102" height="56" viewBox="0 0 102 56" fill="none" xmlns="http://www.w3.org/2000/svg">
<g clip-path="url(#clip0_122_62)">
<path d="M0.245277 45.2459V36.9797H3.21812C3.99341 36.9797 4.61818 37.1679 5.09215 37.5444C5.56612 37.9205 5.80291 38.4426 5.80291 39.1101C5.80291 39.4983 5.71302 39.8475 5.53274 40.1581C5.35273 40.4685 5.10591 40.7091 4.79242 40.8799V40.9032C5.23112 41.0274 5.56612 41.272 5.79715 41.6366C6.02824 42.0014 6.14374 42.4052 6.14374 42.8475C6.14374 43.6316 5.86967 44.2272 5.32124 44.6348C4.77287 45.0421 4.08747 45.2459 3.26497 45.2459H0.245277ZM1.76089 40.3559H3.22972C3.55086 40.3559 3.80374 40.257 3.98765 40.0592C4.17175 39.8611 4.26388 39.607 4.26388 39.2964C4.26388 38.9937 4.17175 38.7473 3.98765 38.5571C3.80374 38.367 3.54323 38.2719 3.2063 38.2719H1.76089V40.3559ZM1.76089 43.9538H3.3824C3.75849 43.9538 4.05431 43.843 4.26971 43.6218C4.48504 43.4005 4.59279 43.1115 4.59279 42.7543C4.59279 42.4052 4.48504 42.12 4.26971 41.8986C4.05431 41.6774 3.75849 41.5668 3.3824 41.5668H1.76089V43.9538ZM10.5371 45.2459V36.9797H13.2866C13.9917 36.9797 14.5166 37.0534 14.8612 37.2007C15.3 37.3793 15.6446 37.6626 15.8952 38.0506C16.1459 38.4388 16.2713 38.9085 16.2713 39.4595C16.2713 39.9641 16.1459 40.4239 15.8952 40.8392C15.6446 41.2545 15.3038 41.5473 14.8729 41.7181V41.7416C14.9434 41.8268 15.0336 41.9705 15.143 42.1721L16.8585 45.2459H15.1549L13.51 42.1607H12.0528V45.2459H10.5371ZM12.0528 40.8567H13.416C13.8231 40.8567 14.1444 40.7384 14.3793 40.5015C14.6145 40.2647 14.732 39.9448 14.732 39.541C14.732 38.9666 14.5125 38.5903 14.0739 38.4115C13.8624 38.3184 13.5568 38.2719 13.1574 38.2719H12.0528V40.8567ZM19.9948 45.2459L22.9205 36.9797H24.5185L27.4442 45.2459H25.8932L25.1766 43.127H22.2506L21.5457 45.2459H19.9948ZM22.6268 41.9044H24.8006L24.0602 39.6923L23.7313 38.4115H23.7079C23.5824 38.9549 23.4727 39.3819 23.3786 39.6923L22.6268 41.9044ZM31.1678 42.277V36.9797H32.6837V42.2653C32.6837 42.8164 32.85 43.2453 33.1831 43.5518C33.5159 43.8586 33.9645 44.0119 34.5283 44.0119C35.0924 44.0119 35.5407 43.8586 35.8738 43.5518C36.2066 43.2453 36.3732 42.8164 36.3732 42.2653V36.9797H37.8888V42.277C37.8888 43.2008 37.5814 43.9496 36.9665 44.5242C36.3516 45.0984 35.5427 45.3856 34.5402 45.3856C33.5297 45.3856 32.7149 45.0984 32.0962 44.5242C31.4772 43.9496 31.1678 43.2008 31.1678 42.277ZM42.6699 45.2459V36.9797H44.1855L47.3464 41.7531C47.4404 41.9006 47.5443 42.0812 47.6576 42.2945C47.7713 42.508 47.8633 42.6845 47.9339 42.8243L48.0395 43.0338H48.0633C48.0084 42.506 47.9809 42.079 47.9809 41.7531V36.9797H49.4849V45.2459H47.9809L44.8202 40.4841C44.7262 40.3365 44.6223 40.1562 44.5087 39.9425C44.3951 39.7292 44.3033 39.5527 44.2327 39.4128L44.1268 39.2033H44.1033C44.1582 39.7311 44.1855 40.1581 44.1855 40.4841V45.2459H42.6699ZM53.8783 41.0545C53.8783 39.8592 54.2835 38.8579 55.0945 38.0506C55.9051 37.2436 56.9371 36.8398 58.1905 36.8398C59.4439 36.8398 60.4759 37.2436 61.2866 38.0506C62.0975 38.8579 62.5028 39.8592 62.5028 41.0545C62.5028 42.2809 62.0975 43.3095 61.2866 44.1398C60.4759 44.9703 59.4439 45.3856 58.1905 45.3856C56.9371 45.3856 55.9051 44.9703 55.0945 44.1398C54.2835 43.3095 53.8783 42.2809 53.8783 41.0545ZM55.4411 41.0545C55.4411 41.9006 55.7016 42.6049 56.2224 43.1677C56.7433 43.7305 57.3995 44.0119 58.1905 44.0119C58.9818 44.0119 59.6377 43.7305 60.1586 43.1677C60.6797 42.6049 60.94 41.9006 60.94 41.0545C60.94 40.2474 60.6797 39.5721 60.1586 39.0286C59.6377 38.4853 58.9818 38.2138 58.1905 38.2138C57.3995 38.2138 56.7433 38.4853 56.2224 39.0286C55.7016 39.5721 55.4411 40.2474 55.4411 41.0545ZM68.7526 45.2459L65.7445 36.9797H67.3778L69.2109 42.3702L69.528 43.581H69.5517C69.6611 43.092 69.7669 42.6885 69.8688 42.3702L71.7254 36.9797H73.3351L70.327 45.2459H68.7526ZM77.2584 45.2459V36.9797H78.774V45.2459H77.2584ZM83.1675 41.0777C83.1675 39.8668 83.5709 38.8579 84.3776 38.0506C85.1844 37.2436 86.2106 36.8398 87.4563 36.8398C88.7252 36.8398 89.7514 37.2163 90.5347 37.9692L89.8062 39.0869C89.5008 38.8308 89.1423 38.621 88.731 38.4582C88.3198 38.2952 87.9184 38.2138 87.5266 38.2138C86.6493 38.2138 85.9639 38.4853 85.4703 39.0286C84.977 39.5721 84.7303 40.2474 84.7303 41.0545C84.7303 41.8695 84.9809 42.5661 85.4822 43.1445C85.9835 43.7226 86.6689 44.0119 87.5385 44.0119C88.4315 44.0119 89.2383 43.6625 89.959 42.9639L90.758 44.0469C89.8727 44.9394 88.7801 45.3856 87.4798 45.3856C86.1872 45.3856 85.1453 44.9782 84.3542 44.1633C83.5629 43.3483 83.1675 42.3197 83.1675 41.0777ZM94.9163 45.2459V36.9797H96.4319V40.4841H100.251V36.9797H101.755V45.2459H100.251V41.7763H96.4319V45.2459H94.9163Z" fill="white"/>
<path fill-rule="evenodd" clip-rule="evenodd" d="M56.3876 6.73555C54.061 5.67508 48.7254 5.28121 45.633 6.71618L45.288 7.10013C45.0108 7.50343 44.7959 7.96598 44.7969 8.46268C44.7972 8.59661 44.8099 8.73048 44.8348 8.86213C45.0288 9.8913 45.9181 10.6628 46.804 11.1421C48.0435 11.8129 49.5472 12.0953 50.9506 12.0924C52.3539 12.0897 53.8565 11.8014 55.0932 11.1256C55.9771 10.6426 56.8634 9.86761 57.0532 8.83766C57.0775 8.70596 57.0897 8.57195 57.0895 8.43803C57.0885 7.9234 56.9094 7.44522 56.606 7.03254L56.3876 6.73555ZM44.9845 6.86699C43.1416 5.67493 37.1807 4.88178 34.7196 4.7172C29.268 4.35262 30.1887 1.69171 25.085 0.243036L25.3957 0.39282C28.6154 1.18639 28.5614 3.9961 31.168 5.14579C34.8893 6.78715 41.4701 6.71611 44.6426 10.4916C44.6292 10.6563 44.6227 10.8322 44.6223 11.0168L44.6326 11.0167C44.78 11.0147 44.9274 11.0254 45.0733 11.0467L45.3466 11.0657L45.3561 11.0677C48.2974 11.6511 50.4329 15.8293 50.9735 18.4881C50.9851 18.5454 50.9964 18.6056 51.0074 18.6681C51.0184 18.6056 51.0297 18.5454 51.0413 18.4881C51.5819 15.8292 53.7174 11.6511 56.6589 11.0677L56.6685 11.0657L56.9414 11.0468C57.069 11.0281 57.1979 11.0176 57.327 11.0165C57.3287 10.8506 57.326 10.6909 57.3182 10.5395C60.4751 6.71584 67.0952 6.79398 70.8321 5.14579C73.4387 3.9961 73.3847 1.18639 76.6044 0.39282L76.9151 0.243036C71.8114 1.69171 72.7321 4.35262 67.2804 4.7172C64.7813 4.88426 58.6599 5.59619 56.9184 6.81272C57.2624 7.294 57.4715 7.84342 57.4727 8.43725C57.473 8.59433 57.4588 8.75141 57.4303 8.90588C57.2183 10.056 56.2693 10.9168 55.2783 11.4582C53.9843 12.1652 52.4202 12.4694 50.9513 12.4722C49.4826 12.4752 47.9171 12.1773 46.6203 11.4755C45.6273 10.9381 44.6747 10.081 44.458 8.93191C44.4289 8.77746 44.414 8.62053 44.4136 8.46346C44.4124 7.88687 44.6483 7.35503 44.9712 6.88621L44.9845 6.86699ZM44.6268 11.3184C44.692 13.3763 45.434 16.3055 46.2085 17.488C47.5133 19.4801 46.185 21.4751 47.8524 23.8366C48.2134 24.3477 48.6484 24.5006 49.0818 24.4817L49.3996 24.2702C51.7885 22.6705 50.4404 17.6759 49.4208 15.5973C48.4299 13.5769 46.9906 11.7186 44.6268 11.3184ZM50.0592 24.2111C50.4789 24.0211 50.8262 23.7994 51.0023 23.7879C51.1845 23.7998 51.5447 24.0366 51.9778 24.2306C51.4668 23.7903 51.1668 23.06 51.0074 22.2451C50.8504 23.0482 50.5568 23.769 50.0592 24.2111ZM52.9405 24.483C53.3552 24.4905 53.7705 24.3314 54.1199 23.8366C55.7874 21.4751 54.4591 19.4801 55.7639 17.488C56.5212 16.3317 57.233 13.4206 57.3188 11.3308C54.9962 11.7555 53.5753 13.5966 52.594 15.5973C51.5739 17.6767 50.2265 22.6691 52.6152 24.2702L52.9405 24.483Z" fill="white"/>
<path d="M38.1524 55.6842V51.4226H40.569V51.7985H38.5746V53.3503H40.2081V53.7262H38.5746V55.3083H40.6853V55.6842H38.1524ZM41.2481 55.2114L41.499 54.8901C41.6417 55.0275 41.812 55.1397 42.0098 55.2266C42.2076 55.3134 42.4085 55.3568 42.6125 55.3568C42.8694 55.3568 43.0784 55.2902 43.2395 55.1568C43.4006 55.0235 43.4812 54.8477 43.4812 54.6294C43.4812 54.4839 43.4414 54.3556 43.3619 54.2445C43.2824 54.1334 43.1804 54.0404 43.056 53.9657C42.9315 53.8909 42.793 53.8201 42.64 53.7534C42.487 53.6867 42.334 53.6171 42.1811 53.5443C42.0282 53.4716 41.8895 53.3918 41.7651 53.3048C41.6408 53.218 41.5387 53.1049 41.4592 52.9653C41.3797 52.826 41.3399 52.6673 41.3399 52.4895C41.3399 52.146 41.4684 51.8702 41.7254 51.6621C41.9823 51.4539 42.3045 51.3499 42.6919 51.3499C43.1528 51.3499 43.5321 51.4873 43.8299 51.7621L43.6219 52.1137C43.5036 52.0046 43.3588 51.9167 43.1875 51.85C43.0162 51.7833 42.8449 51.75 42.6736 51.75C42.4208 51.75 42.2076 51.8146 42.0343 51.944C41.861 52.0733 41.7743 52.247 41.7743 52.4653C41.7743 52.6027 41.8141 52.7249 41.8936 52.832C41.9732 52.9391 42.0751 53.027 42.1995 53.0957C42.3239 53.1644 42.4626 53.2311 42.6155 53.2958C42.7684 53.3605 42.9214 53.4291 43.0743 53.5019C43.2273 53.5746 43.3659 53.6555 43.4903 53.7444C43.6148 53.8333 43.7167 53.9494 43.7962 54.0929C43.8758 54.2364 43.9155 54.4011 43.9155 54.5869C43.9155 54.9264 43.7972 55.2063 43.5607 55.4266C43.3242 55.6469 43.004 55.757 42.6001 55.757C42.0659 55.757 41.6152 55.5751 41.2481 55.2114ZM45.8733 55.6842V51.7985H44.3316V51.4226H47.8433V51.7985H46.2954V55.6842H45.8733ZM48.0084 55.6842V55.1811H48.51V55.6842H48.0084ZM50.8716 55.6842C50.8552 55.5549 50.8471 55.464 50.8471 55.4115C50.8471 55.2094 50.8878 55.0205 50.9694 54.8447C51.051 54.6689 51.156 54.5173 51.2845 54.39C51.4129 54.2627 51.5568 54.1415 51.7158 54.0262C51.8749 53.9111 52.0329 53.801 52.1899 53.6959C52.3469 53.5908 52.4897 53.4847 52.6182 53.3776C52.7466 53.2705 52.8516 53.1472 52.9333 53.0078C53.0148 52.8684 53.0556 52.7219 53.0556 52.5683C53.0556 52.3299 52.973 52.1339 52.8078 51.9803C52.6427 51.8267 52.4275 51.75 52.1624 51.75C51.9666 51.75 51.7841 51.8035 51.6148 51.9106C51.4456 52.0177 51.3059 52.1581 51.1958 52.3319L50.8838 52.1198C51.0102 51.8934 51.1886 51.7086 51.4191 51.565C51.6496 51.4216 51.9054 51.3499 52.1869 51.3499C52.5826 51.3499 52.8996 51.463 53.1382 51.6893C53.3769 51.9156 53.4961 52.2006 53.4961 52.5441C53.4961 52.7381 53.4563 52.9189 53.3769 53.0867C53.2972 53.2544 53.1933 53.3998 53.0648 53.5231C52.9363 53.6464 52.7946 53.7636 52.6396 53.8747C52.4846 53.9859 52.3296 54.0929 52.1747 54.196C52.0197 54.299 51.8779 54.4042 51.7494 54.5112C51.621 54.6183 51.516 54.7396 51.4343 54.8749C51.3528 55.0103 51.312 55.1548 51.312 55.3083H53.5634V55.6842H50.8716ZM55.827 55.757C55.305 55.757 54.9277 55.5569 54.6952 55.1568C54.4628 54.7568 54.3465 54.2213 54.3465 53.5504C54.3465 53.2311 54.3721 52.9432 54.423 52.6866C54.474 52.4299 54.5555 52.1985 54.6677 51.9924C54.7798 51.7863 54.9338 51.6277 55.1295 51.5166C55.3254 51.4054 55.5579 51.3499 55.827 51.3499C56.186 51.3499 56.4796 51.4509 56.708 51.6529C56.9364 51.855 57.0945 52.1137 57.1821 52.429C57.2699 52.7441 57.3137 53.118 57.3137 53.5504C57.3137 53.8737 57.2881 54.1637 57.2372 54.4203C57.1862 54.6769 57.1046 54.9073 56.9925 55.1114C56.8803 55.3154 56.7263 55.4741 56.5306 55.5873C56.3348 55.7004 56.1004 55.757 55.827 55.757ZM55.827 55.363C56.0881 55.363 56.2991 55.2801 56.4602 55.1144C56.6213 54.9487 56.7304 54.7385 56.7876 54.4839C56.8446 54.2293 56.8732 53.9181 56.8732 53.5504C56.8732 53.2836 56.8568 53.0462 56.8243 52.8381C56.7916 52.63 56.7366 52.442 56.659 52.2744C56.5816 52.1066 56.4735 51.9773 56.3348 51.8863C56.1961 51.7954 56.0269 51.75 55.827 51.75C55.1336 51.75 54.787 52.3501 54.787 53.5504C54.787 54.1162 54.8655 54.5598 55.0225 54.881C55.1795 55.2023 55.4477 55.363 55.827 55.363ZM58.0967 55.6842C58.0804 55.5549 58.0723 55.464 58.0723 55.4115C58.0723 55.2094 58.1131 55.0205 58.1946 54.8447C58.2762 54.6689 58.3813 54.5173 58.5097 54.39C58.6382 54.2627 58.782 54.1415 58.941 54.0262C59.1001 53.9111 59.2581 53.801 59.4152 53.6959C59.5722 53.5908 59.7149 53.4847 59.8434 53.3776C59.9719 53.2705 60.0769 53.1472 60.1584 53.0078C60.2401 52.8684 60.2809 52.7219 60.2809 52.5683C60.2809 52.3299 60.1983 52.1339 60.0331 51.9803C59.8679 51.8267 59.6527 51.75 59.3876 51.75C59.1919 51.75 59.0093 51.8035 58.8401 51.9106C58.6708 52.0177 58.5312 52.1581 58.421 52.3319L58.109 52.1198C58.2354 51.8934 58.4139 51.7086 58.6444 51.565C58.8748 51.4216 59.1307 51.3499 59.4121 51.3499C59.8077 51.3499 60.1249 51.463 60.3634 51.6893C60.602 51.9156 60.7213 52.2006 60.7213 52.5441C60.7213 52.7381 60.6816 52.9189 60.602 53.0867C60.5225 53.2544 60.4185 53.3998 60.29 53.5231C60.1615 53.6464 60.0199 53.7636 59.8648 53.8747C59.7099 53.9859 59.5549 54.0929 59.3999 54.196C59.2449 54.299 59.1032 54.4042 58.9747 54.5112C58.8463 54.6183 58.7411 54.7396 58.6596 54.8749C58.5781 55.0103 58.5373 55.1548 58.5373 55.3083H60.7886V55.6842H58.0967ZM61.5167 55.6842V55.3083H62.4833V52.1804L62.4894 51.944H62.4772C62.4487 52.0005 62.3773 52.0854 62.263 52.1985L61.8042 52.6471L61.535 52.3804L62.5078 51.4226H62.8993V55.3083H63.8476V55.6842H61.5167Z" fill="white"/>
</g>
<defs>
<clipPath id="clip0_122_62">
<rect width="102" height="56" fill="white"/>
</clipPath>
</defs>
</svg>
